# xmcd
#
# Track frame offsets: 
#        150
#        14013
#        24645
#        37720
#        48613
#        64445
#        77235
#        89080
#        102638
#        113163
#        126830
#        140515
#        150450
#        163488
#        178638
#        192740
#        208198
#        223105
#        236030
#        252098
#        264540
#        278373
#        291320
#        307035
#        318545
#
# Disc length: 4446 seconds
#
# Revision: 3
# Processed by: cddbd v1.5.1PL0 Copyright (c) Steve Scherf et al.
# Submitted via: ExactAudioCopy v0.95a5
#
DISCID=8a115c19
DTITLE=Tom T. Hall - Storyteller, Poet, Philosopher - Disc 2
DYEAR=1995
DGENRE=Country
TTITLE0=Shoeshine Man
TTITLE1=Flat Footin' It
TTITLE2=Old Five And Dimers Like Me
TTITLE3=Willy The Wandering Gypsy And Me
TTITLE4=More About John Henry
TTITLE5=Give Her My Best
TTITLE6=Pamela Brown
TTITLE7=I Flew Over Our House Last Night
TTITLE8=Molly And Tenbrooks (With Bill Monroe)
TTITLE9=The Monkey That Became President
TTITLE10=That's How I Got To Memphis
TTITLE11=Mama's Got The Catfish Blues
TTITLE12=I Like Beer
TTITLE13=Day Drinkin' (With Dave Dudley)
TTITLE14=That Song Keeps Driving Me Crazy
TTITLE15=Salute To A Switchblade
TTITLE16=Margie's At The Lincoln Park Inn
TTITLE17=Subdivision Blues
TTITLE18=America The Ugly
TTITLE19=Hang Them All (Get The Guilty)
TTITLE20=Levi Jones
TTITLE21=Faster Horses (The Cowboy And The Poet)
TTITLE22=I'm Forty Now
TTITLE23=Deal
TTITLE24=Me And Jesus
EXTD=(c)1995 Polygram USA\nCD-Box Katalog: 314 526 992-2
EXTT0=
EXTT1=
EXTT2=
EXTT3=
EXTT4=
EXTT5=
EXTT6=
EXTT7=
EXTT8=
EXTT9=
EXTT10=
EXTT11=
EXTT12=
EXTT13=
EXTT14=
EXTT15=
EXTT16=
EXTT17=
EXTT18=
EXTT19=
EXTT20=
EXTT21=
EXTT22=
EXTT23=
EXTT24=
PLAYORDER=
